<svg xmlns="http://www.w3.org/2000/svg" viewBox="0 0 1560 940" font-family="PingFang SC, Hiragino Sans GB, Microsoft YaHei, sans-serif">
  <defs>
    <marker id="arrG" markerWidth="9" markerHeight="9" refX="7" refY="4.5" orient="auto"><path d="M0,0 L8,4.5 L0,9 Z" fill="#059669"/></marker>
    <marker id="arrB" markerWidth="9" markerHeight="9" refX="7" refY="4.5" orient="auto"><path d="M0,0 L8,4.5 L0,9 Z" fill="#2563EB"/></marker>
    <marker id="arrP" markerWidth="9" markerHeight="9" refX="7" refY="4.5" orient="auto"><path d="M0,0 L8,4.5 L0,9 Z" fill="#DB2777"/></marker>
    <marker id="arrO" markerWidth="9" markerHeight="9" refX="7" refY="4.5" orient="auto"><path d="M0,0 L8,4.5 L0,9 Z" fill="#EA580C"/></marker>
  </defs>

  <rect x="0" y="0" width="1560" height="940" fill="#ffffff"/>
  <text x="780" y="56" text-anchor="middle" font-size="30" font-weight="700" fill="#1F2937">高中物理 · 运动学知识体系</text>

  <!-- ===== 根节点 ===== -->
  <rect x="640" y="84" width="280" height="64" rx="12" fill="#FEF3C7" stroke="#D97706" stroke-width="3"/>
  <text x="780" y="124" text-anchor="middle" font-size="27" font-weight="700" fill="#92400E">运动学</text>

  <!-- 根 → 三大分支（直角走线） -->
  <path d="M780,148 V244" fill="none" stroke="#D97706" stroke-width="2.5" marker-end="url(#arrO)"/>
  <path d="M780,148 V190 Q780,200 770,200 L310,200 Q300,200 300,210 V244" fill="none" stroke="#D97706" stroke-width="2.5" marker-end="url(#arrO)"/>
  <path d="M780,148 V190 Q780,200 790,200 L1250,200 Q1260,200 1260,210 V244" fill="none" stroke="#D97706" stroke-width="2.5" marker-end="url(#arrO)"/>

  <!-- ===== 一级分支 ===== -->
  <rect x="190" y="252" width="220" height="64" rx="12" fill="#D1FAE5" stroke="#059669" stroke-width="3"/>
  <text x="300" y="292" text-anchor="middle" font-size="24" font-weight="700" fill="#065F46">基本概念</text>

  <rect x="640" y="252" width="280" height="64" rx="12" fill="#DBEAFE" stroke="#2563EB" stroke-width="3"/>
  <text x="780" y="292" text-anchor="middle" font-size="24" font-weight="700" fill="#1E40AF">匀变速直线运动</text>

  <rect x="1150" y="252" width="220" height="64" rx="12" fill="#FCE7F3" stroke="#DB2777" stroke-width="3"/>
  <text x="1260" y="292" text-anchor="middle" font-size="24" font-weight="700" fill="#9D174D">运动图象</text>

  <!-- ===== 左列：基本概念 → 4 个叶子（左侧汇流线） ===== -->
  <path d="M300,316 V336 Q300,346 290,346 L180,346 Q170,346 170,356 V662" fill="none" stroke="#059669" stroke-width="2.5"/>
  <path d="M170,422 H184" fill="none" stroke="#059669" stroke-width="2.5" marker-end="url(#arrG)"/>
  <path d="M170,502 H184" fill="none" stroke="#059669" stroke-width="2.5" marker-end="url(#arrG)"/>
  <path d="M170,582 H184" fill="none" stroke="#059669" stroke-width="2.5" marker-end="url(#arrG)"/>
  <path d="M170,662 H184" fill="none" stroke="#059669" stroke-width="2.5" marker-end="url(#arrG)"/>

  <g font-size="22" fill="#047857" text-anchor="middle">
    <rect x="190" y="396" width="220" height="52" rx="10" fill="#ECFDF5" stroke="#34D399" stroke-width="2.5"/><text x="300" y="430">质点 · 参考系</text>
    <rect x="190" y="476" width="220" height="52" rx="10" fill="#ECFDF5" stroke="#34D399" stroke-width="2.5"/><text x="300" y="510">位移 · 路程</text>
    <rect x="190" y="556" width="220" height="52" rx="10" fill="#ECFDF5" stroke="#34D399" stroke-width="2.5"/><text x="300" y="590">速度 · 速率</text>
    <rect x="190" y="636" width="220" height="52" rx="10" fill="#ECFDF5" stroke="#34D399" stroke-width="2.5"/><text x="300" y="670">加速度</text>
  </g>

  <!-- ===== 中列：匀变速 → 3 个叶子（右侧汇流线） ===== -->
  <path d="M780,316 V336 Q780,346 790,346 L940,346 Q950,346 950,356 V574" fill="none" stroke="#2563EB" stroke-width="2.5"/>
  <path d="M950,422 H928" fill="none" stroke="#2563EB" stroke-width="2.5" marker-end="url(#arrB)"/>
  <path d="M950,498 H928" fill="none" stroke="#2563EB" stroke-width="2.5" marker-end="url(#arrB)"/>
  <path d="M950,574 H928" fill="none" stroke="#2563EB" stroke-width="2.5" marker-end="url(#arrB)"/>

  <g font-size="22" fill="#1D4ED8" text-anchor="middle">
    <rect x="640" y="396" width="280" height="52" rx="10" fill="#EFF6FF" stroke="#60A5FA" stroke-width="2.5"/><text x="780" y="430">3 个基本公式</text>
    <rect x="640" y="472" width="280" height="52" rx="10" fill="#EFF6FF" stroke="#60A5FA" stroke-width="2.5"/><text x="780" y="506">3 个重要推论</text>
    <rect x="640" y="548" width="280" height="52" rx="10" fill="#EFF6FF" stroke="#60A5FA" stroke-width="2.5"/><text x="780" y="582">初速度为零的比例</text>
  </g>

  <!-- 中列末叶 → 典型问题与方法 -->
  <path d="M780,600 V660" fill="none" stroke="#2563EB" stroke-width="2.5" marker-end="url(#arrB)"/>

  <!-- ===== 典型问题与方法 ===== -->
  <rect x="630" y="668" width="300" height="60" rx="12" fill="#FFEDD5" stroke="#EA580C" stroke-width="3"/>
  <text x="780" y="706" text-anchor="middle" font-size="24" font-weight="700" fill="#9A3412">典型问题与方法</text>

  <!-- 典型问题 → 底部三项（直角走线） -->
  <path d="M780,728 V804" fill="none" stroke="#EA580C" stroke-width="2.5" marker-end="url(#arrO)"/>
  <path d="M780,728 V758 Q780,768 770,768 L390,768 Q380,768 380,778 V804" fill="none" stroke="#EA580C" stroke-width="2.5" marker-end="url(#arrO)"/>
  <path d="M780,728 V758 Q780,768 790,768 L1170,768 Q1180,768 1180,778 V804" fill="none" stroke="#EA580C" stroke-width="2.5" marker-end="url(#arrO)"/>

  <g font-size="22" fill="#C2410C" text-anchor="middle">
    <rect x="240" y="812" width="280" height="56" rx="10" fill="#FFF7ED" stroke="#FB923C" stroke-width="2.5"/><text x="380" y="848">追及相遇问题</text>
    <rect x="640" y="812" width="280" height="56" rx="10" fill="#FFF7ED" stroke="#FB923C" stroke-width="2.5"/><text x="780" y="848">多过程问题</text>
    <rect x="1040" y="812" width="280" height="56" rx="10" fill="#FFF7ED" stroke="#FB923C" stroke-width="2.5"/><text x="1180" y="848">逆向思维法</text>
  </g>

  <!-- ===== 右列：运动图象 → 3 个叶子（右侧汇流线） ===== -->
  <path d="M1260,316 V336 Q1260,346 1270,346 L1380,346 Q1390,346 1390,356 V574" fill="none" stroke="#DB2777" stroke-width="2.5"/>
  <path d="M1390,422 H1372" fill="none" stroke="#DB2777" stroke-width="2.5" marker-end="url(#arrP)"/>
  <path d="M1390,498 H1372" fill="none" stroke="#DB2777" stroke-width="2.5" marker-end="url(#arrP)"/>
  <path d="M1390,574 H1372" fill="none" stroke="#DB2777" stroke-width="2.5" marker-end="url(#arrP)"/>

  <g font-size="22" fill="#BE185D" text-anchor="middle">
    <rect x="1150" y="396" width="220" height="52" rx="10" fill="#FDF2F8" stroke="#F472B6" stroke-width="2.5"/><text x="1260" y="430">x-t 图象</text>
    <rect x="1150" y="472" width="220" height="52" rx="10" fill="#FDF2F8" stroke="#F472B6" stroke-width="2.5"/><text x="1260" y="506">v-t 图象</text>
    <rect x="1150" y="548" width="220" height="52" rx="10" fill="#FDF2F8" stroke="#F472B6" stroke-width="2.5"/><text x="1260" y="582">图象转换</text>
  </g>
</svg>
